<svg id="visual" viewBox="0 0 1920 300" width="1920" height="300" xmlns="http://www.w3.org/2000/svg" xmlns:xlink="http://www.w3.org/1999/xlink" version="1.1"><path d="M0 19L29.2 25.5C58.3 32 116.7 45 174.8 50C233 55 291 52 349.2 48.5C407.3 45 465.7 41 523.8 45.5C582 50 640 63 698.2 71C756.3 79 814.7 82 872.8 76C931 70 989 55 1047.2 48.5C1105.3 42 1163.7 44 1221.8 46.5C1280 49 1338 52 1396.2 50C1454.3 48 1512.7 41 1570.8 35C1629 29 1687 24 1745.2 28.5C1803.3 33 1861.7 47 1890.8 54L1920 61L1920 0L1890.8 0C1861.7 0 1803.3 0 1745.2 0C1687 0 1629 0 1570.8 0C1512.7 0 1454.3 0 1396.2 0C1338 0 1280 0 1221.8 0C1163.7 0 1105.3 0 1047.2 0C989 0 931 0 872.8 0C814.7 0 756.3 0 698.2 0C640 0 582 0 523.8 0C465.7 0 407.3 0 349.2 0C291 0 233 0 174.8 0C116.7 0 58.3 0 29.2 0L0 0Z" fill="#0088ff"></path><path d="M0 79L29.2 87C58.3 95 116.7 111 174.8 118.5C233 126 291 125 349.2 119C407.3 113 465.7 102 523.8 100.5C582 99 640 107 698.2 114.5C756.3 122 814.7 129 872.8 119.5C931 110 989 84 1047.2 73.5C1105.3 63 1163.7 68 1221.8 79C1280 90 1338 107 1396.2 108C1454.3 109 1512.7 94 1570.8 86C1629 78 1687 77 1745.2 78C1803.3 79 1861.7 82 1890.8 83.5L1920 85L1920 59L1890.8 52C1861.7 45 1803.3 31 1745.2 26.5C1687 22 1629 27 1570.8 33C1512.7 39 1454.3 46 1396.2 48C1338 50 1280 47 1221.8 44.5C1163.7 42 1105.3 40 1047.2 46.5C989 53 931 68 872.8 74C814.7 80 756.3 77 698.2 69C640 61 582 48 523.8 43.5C465.7 39 407.3 43 349.2 46.5C291 50 233 53 174.8 48C116.7 43 58.3 30 29.2 23.5L0 17Z" fill="#88adff"></path><path d="M0 163L29.2 178C58.3 193 116.7 223 174.8 223C233 223 291 193 349.2 175.5C407.3 158 465.7 153 523.8 151C582 149 640 150 698.2 171.5C756.3 193 814.7 235 872.8 229C931 223 989 169 1047.2 157C1105.3 145 1163.7 175 1221.8 193C1280 211 1338 217 1396.2 222.5C1454.3 228 1512.7 233 1570.8 234.5C1629 236 1687 234 1745.2 237C1803.3 240 1861.7 248 1890.8 252L1920 256L1920 83L1890.8 81.5C1861.7 80 1803.3 77 1745.2 76C1687 75 1629 76 1570.8 84C1512.7 92 1454.3 107 1396.2 106C1338 105 1280 88 1221.8 77C1163.7 66 1105.3 61 1047.2 71.5C989 82 931 108 872.8 117.5C814.7 127 756.3 120 698.2 112.5C640 105 582 97 523.8 98.5C465.7 100 407.3 111 349.2 117C291 123 233 124 174.8 116.5C116.7 109 58.3 93 29.2 85L0 77Z" fill="#c8d5ff"></path><path d="M0 301L29.2 301C58.3 301 116.7 301 174.8 301C233 301 291 301 349.2 301C407.3 301 465.7 301 523.8 301C582 301 640 301 698.2 301C756.3 301 814.7 301 872.8 301C931 301 989 301 1047.2 301C1105.3 301 1163.7 301 1221.8 301C1280 301 1338 301 1396.2 301C1454.3 301 1512.7 301 1570.8 301C1629 301 1687 301 1745.2 301C1803.3 301 1861.7 301 1890.8 301L1920 301L1920 254L1890.8 250C1861.7 246 1803.3 238 1745.2 235C1687 232 1629 234 1570.8 232.5C1512.7 231 1454.3 226 1396.2 220.5C1338 215 1280 209 1221.8 191C1163.7 173 1105.3 143 1047.2 155C989 167 931 221 872.8 227C814.7 233 756.3 191 698.2 169.5C640 148 582 147 523.8 149C465.7 151 407.3 156 349.2 173.5C291 191 233 221 174.8 221C116.7 221 58.3 191 29.2 176L0 161Z" fill="#ffffff"></path></svg>