<svg id="visual" viewBox="0 0 1920 300" width="1920" height="300" xmlns="http://www.w3.org/2000/svg" xmlns:xlink="http://www.w3.org/1999/xlink" version="1.1"><path d="M0 28L20 35.5C40 43 80 58 120 66.5C160 75 200 77 240 71.5C280 66 320 53 360 47.5C400 42 440 44 480 41C520 38 560 30 600 30C640 30 680 38 720 43C760 48 800 50 840 54.5C880 59 920 66 960 67C1000 68 1040 63 1080 57.5C1120 52 1160 46 1200 46.5C1240 47 1280 54 1320 55.5C1360 57 1400 53 1440 47C1480 41 1520 33 1560 36C1600 39 1640 53 1680 56C1720 59 1760 51 1800 51.5C1840 52 1880 61 1900 65.5L1920 70L1920 0L1900 0C1880 0 1840 0 1800 0C1760 0 1720 0 1680 0C1640 0 1600 0 1560 0C1520 0 1480 0 1440 0C1400 0 1360 0 1320 0C1280 0 1240 0 1200 0C1160 0 1120 0 1080 0C1040 0 1000 0 960 0C920 0 880 0 840 0C800 0 760 0 720 0C680 0 640 0 600 0C560 0 520 0 480 0C440 0 400 0 360 0C320 0 280 0 240 0C200 0 160 0 120 0C80 0 40 0 20 0L0 0Z" fill="#ffffff"></path><path d="M0 133L20 128.5C40 124 80 115 120 125C160 135 200 164 240 173.5C280 183 320 173 360 168.5C400 164 440 165 480 163C520 161 560 156 600 144C640 132 680 113 720 105C760 97 800 100 840 115C880 130 920 157 960 162C1000 167 1040 150 1080 130.5C1120 111 1160 89 1200 98.5C1240 108 1280 149 1320 153.5C1360 158 1400 126 1440 106.5C1480 87 1520 80 1560 84.5C1600 89 1640 105 1680 108C1720 111 1760 101 1800 108.5C1840 116 1880 141 1900 153.5L1920 166L1920 68L1900 63.5C1880 59 1840 50 1800 49.5C1760 49 1720 57 1680 54C1640 51 1600 37 1560 34C1520 31 1480 39 1440 45C1400 51 1360 55 1320 53.5C1280 52 1240 45 1200 44.5C1160 44 1120 50 1080 55.5C1040 61 1000 66 960 65C920 64 880 57 840 52.5C800 48 760 46 720 41C680 36 640 28 600 28C560 28 520 36 480 39C440 42 400 40 360 45.5C320 51 280 64 240 69.5C200 75 160 73 120 64.5C80 56 40 41 20 33.5L0 26Z" fill="#c8d5ff"></path><path d="M0 241L20 236.5C40 232 80 223 120 222.5C160 222 200 230 240 233.5C280 237 320 236 360 230C400 224 440 213 480 219.5C520 226 560 250 600 254.5C640 259 680 244 720 238.5C760 233 800 237 840 234C880 231 920 221 960 222.5C1000 224 1040 237 1080 235.5C1120 234 1160 218 1200 213.5C1240 209 1280 216 1320 218.5C1360 221 1400 219 1440 213C1480 207 1520 197 1560 195C1600 193 1640 199 1680 203.5C1720 208 1760 211 1800 221C1840 231 1880 248 1900 256.5L1920 265L1920 164L1900 151.5C1880 139 1840 114 1800 106.5C1760 99 1720 109 1680 106C1640 103 1600 87 1560 82.5C1520 78 1480 85 1440 104.5C1400 124 1360 156 1320 151.5C1280 147 1240 106 1200 96.5C1160 87 1120 109 1080 128.5C1040 148 1000 165 960 160C920 155 880 128 840 113C800 98 760 95 720 103C680 111 640 130 600 142C560 154 520 159 480 161C440 163 400 162 360 166.5C320 171 280 181 240 171.5C200 162 160 133 120 123C80 113 40 122 20 126.5L0 131Z" fill="#88adff"></path><path d="M0 301L20 301C40 301 80 301 120 301C160 301 200 301 240 301C280 301 320 301 360 301C400 301 440 301 480 301C520 301 560 301 600 301C640 301 680 301 720 301C760 301 800 301 840 301C880 301 920 301 960 301C1000 301 1040 301 1080 301C1120 301 1160 301 1200 301C1240 301 1280 301 1320 301C1360 301 1400 301 1440 301C1480 301 1520 301 1560 301C1600 301 1640 301 1680 301C1720 301 1760 301 1800 301C1840 301 1880 301 1900 301L1920 301L1920 263L1900 254.5C1880 246 1840 229 1800 219C1760 209 1720 206 1680 201.5C1640 197 1600 191 1560 193C1520 195 1480 205 1440 211C1400 217 1360 219 1320 216.5C1280 214 1240 207 1200 211.5C1160 216 1120 232 1080 233.5C1040 235 1000 222 960 220.5C920 219 880 229 840 232C800 235 760 231 720 236.5C680 242 640 257 600 252.5C560 248 520 224 480 217.5C440 211 400 222 360 228C320 234 280 235 240 231.5C200 228 160 220 120 220.5C80 221 40 230 20 234.5L0 239Z" fill="#0088ff"></path></svg>